<?xml version="1.0" encoding="utf-8"?>
<!-- Generator: Adobe Illustrator 16.0.0, SVG Export Plug-In . SVG Version: 6.00 Build 0)  -->
<!DOCTYPE svg PUBLIC "-//W3C//DTD SVG 1.1//EN" "http://www.w3.org/Graphics/SVG/1.1/DTD/svg11.dtd">
<svg version="1.1" id="Layer_1" xmlns="http://www.w3.org/2000/svg" xmlns:xlink="http://www.w3.org/1999/xlink" x="0px" y="0px"
	 width="100px" height="100px" viewBox="0 0 100 100" enable-background="new 0 0 100 100" xml:space="preserve">
<g>
	<path fill-rule="evenodd" clip-rule="evenodd" fill="#2965F1" d="M77.3,16.9c-9.3,0-18.5,0-27.8,0c-9.4,0-18.7,0-28.1,0
		c-1.5,0-2.5,0.9-2.4,2.4c0.2,2.8,0.4,5.6,0.6,8.4c0.3,3.3,0.5,6.5,0.8,9.8c0.2,3.2,0.5,6.3,0.7,9.5c0.2,2.7,0.4,5.5,0.6,8.2
		c0.2,2,0.3,4,0.5,6c0.2,2.7,0.4,5.5,0.6,8.2c0.2,2.5,0.4,5.1,0.6,7.6c0.1,1.1,0.7,1.8,1.8,2.1c7.7,2.4,15.4,4.9,23.2,7.3
		c0.7,0.2,1.4,0.2,2.1,0c7.7-2.5,15.4-4.9,23.1-7.3c1.1-0.4,1.7-1.1,1.8-2.2c0.2-2.4,0.4-4.9,0.6-7.3c0.3-3.8,0.6-7.5,0.9-11.3
		c0.3-4.4,0.7-8.9,1.1-13.3c0.3-3.7,0.6-7.5,0.8-11.2c0.4-4.7,0.7-9.4,1.1-14C80.1,17.8,79.3,16.9,77.3,16.9z"/>
	<path fill-rule="evenodd" clip-rule="evenodd" fill="#FFFFFF" d="M68.4,29.6c-12.6,0-25.2,0-37.8,0c-0.6,0-0.7,0.2-0.6,0.7
		c0.2,2.1,0.3,4.3,0.5,6.4c0,0.4,0.2,0.6,0.6,0.6c1.3,0,2.6,0,3.8,0c8.1,0,16.2,0,24.3,0c0.2,0,0.5,0,0.8,0l-0.3,3.3
		c-0.1,1.3-0.3,2.7-0.4,4c-0.1,0.8-0.1,0.8-0.8,0.8c-8.8,0-17.7,0-26.5,0c-0.8,0-0.8,0-0.7,0.8c0.2,2.3,0.4,4.6,0.5,7h8c0,0,0,0,0,0
		c0.3,0,0.6,0,0.9,0c6.1,0,12.1,0,18.2,0l-0.7,9.3l0.1,0.1l-8,2.2c-0.1,0-0.2,0-0.3,0.1c-0.4,0.1-0.9,0.1-1.3,0
		c-2.6-0.7-5.2-1.4-7.7-2.1c-0.4-0.1-0.5-0.3-0.5-0.6c-0.1-1.3-0.2-2.6-0.3-4h-7.9c0.1,1.3,0.2,2.6,0.3,4c0.2,2,0.3,4.1,0.5,6.1
		c0,0.5,0.2,0.8,0.7,1c5.1,1.6,10.3,3.2,15.4,4.9c0.2,0.1,0.5,0.1,0.8,0c5.2-1.6,10.4-3.3,15.6-4.9c0.4-0.1,0.5-0.3,0.5-0.6
		c0-0.4,0.1-0.8,0.1-1.2l0,0l1.5-19.8c0.1-1,0.2-2,0.2-3c0.2-2.6,0.4-5.2,0.6-7.8c0.2-2.1,0.3-4.2,0.5-6.3
		C69.1,29.8,69,29.6,68.4,29.6z"/>
</g>
</svg>
