<?xml version="1.0" encoding="utf-8"?>
<!-- Generator: Adobe Illustrator 16.0.0, SVG Export Plug-In . SVG Version: 6.00 Build 0)  -->
<!DOCTYPE svg PUBLIC "-//W3C//DTD SVG 1.1//EN" "http://www.w3.org/Graphics/SVG/1.1/DTD/svg11.dtd">
<svg version="1.1" id="Layer_1" xmlns="http://www.w3.org/2000/svg" xmlns:xlink="http://www.w3.org/1999/xlink" x="0px" y="0px"
	 width="100px" height="100px" viewBox="0 0 100 100" enable-background="new 0 0 100 100" xml:space="preserve">
<path fill="#27246B" d="M46.9,91.1c-2.2-3.7-7-4.1-9.8-7.1c2.9-3.1,5.9-3,9-0.3c2.7,2.3,5.3,1.9,8.2,0.1c7.4-4.5,15-8.8,22.7-13
	c2.7-1.4,3.7-3.2,3.6-6.3c-0.2-8.9-0.2-17.8,0-26.7c0.1-3.1-0.9-4.8-3.6-6.4c-7.9-4.4-15.8-8.8-23.6-13.5c-2.5-1.5-4.3-1.2-6.7,0.2
	C38.9,22.7,31,27.3,23,31.6c-2.5,1.3-3.4,3-3.3,5.8c0.1,9.1,0,18.1,0.1,27.3c0,4.5,9.1,10.8,13.2,9.1c2.7-1.1,2.5-3.4,2.5-5.7
	c0-9.2,0-18.6,0-27.8c0-1.8-0.7-3.8,2.5-4c2.9,0,3,1.6,3,3.6c0,10,0.2,20.1-0.1,30.1c-0.3,8.4-5.9,11.7-13.7,8.4
	c-3.3-1.4-6.4-3.4-9.5-5.2c-2.4-1.4-3-3.7-3-6.4c0-10.6,0.1-21.2,0-31.8c0-3.5,1.5-5.6,4.4-7.3c8.9-5.1,17.7-10.1,26.5-15.3
	c3.1-1.9,6-1.8,9.1,0c9,5.2,18,10.3,27.1,15.5c2.7,1.5,4,3.7,4,6.9c-0.1,10.4-0.1,20.8,0,31.2c0.1,4-1.7,6.2-4.9,8.1
	C71.3,79.9,62,85.5,52.6,91.1C50.7,91.1,48.8,91.1,46.9,91.1z"/>
<path fill="#27246B" d="M58,35.2c8.1,0,12.8,2.5,14.2,7.6c0.3,1.2,1.3,2.7-0.3,3.5c-1.4,0.7-3.5,1-4.4-1c-2.9-6.4-8.2-4.8-13.2-4.3
	c-2.1,0.2-3.6,1.3-3.6,3.6c0.1,2.2,2.1,2.6,3.6,3c4.2,0.9,8.6,1.5,12.8,2.3c4,0.8,6.6,2.9,6.8,7.1c0.2,4.2-1.7,7.5-5.5,9
	c-6.4,2.5-12.9,2.4-19.2-0.2c-2-0.8-3.6-2.2-4.3-4.3c-0.6-1.8-2.8-4,0.3-5.3c2.1-0.9,3.4,0.1,4.7,2.4c2.8,5.4,12,6.6,16.6,2.4
	c2.6-2.3,2.3-4.8-1.1-6c-2.3-0.9-4.8-1-7.3-1.4c-2.4-0.4-4.8-0.7-7.3-1.3c-3.6-0.9-5.9-3.3-6.2-7.1c-0.3-3.7,1.6-6.5,4.9-8.2
	C52.3,35.6,55.3,35,58,35.2z"/>
</svg>
