<?xml version="1.0" encoding="utf-8"?>
<!-- Generator: Adobe Illustrator 16.0.0, SVG Export Plug-In . SVG Version: 6.00 Build 0)  -->
<!DOCTYPE svg PUBLIC "-//W3C//DTD SVG 1.1//EN" "http://www.w3.org/Graphics/SVG/1.1/DTD/svg11.dtd">
<svg version="1.1" id="Layer_1" xmlns="http://www.w3.org/2000/svg" xmlns:xlink="http://www.w3.org/1999/xlink" x="0px" y="0px"
	 width="100px" height="100px" viewBox="0 0 100 100" enable-background="new 0 0 100 100" xml:space="preserve">
<g>
	<path fill-rule="evenodd" clip-rule="evenodd" fill="#FC490B" d="M49.8,17.2c9.2,0,18.4,0,27.6,0c2,0,2.8,0.8,2.6,2.8
		c-0.4,4.7-0.7,9.3-1.1,14c-0.3,3.7-0.5,7.5-0.8,11.2c-0.3,4.4-0.7,8.8-1.1,13.3c-0.3,3.7-0.6,7.5-0.9,11.2
		c-0.2,2.4-0.4,4.8-0.6,7.3c-0.1,1.2-0.7,1.9-1.8,2.2c-7.7,2.4-15.3,4.8-23,7.3c-0.7,0.2-1.4,0.2-2.1,0c-7.7-2.4-15.4-4.9-23-7.3
		c-1.1-0.3-1.7-1-1.7-2.1c-0.2-2.5-0.4-5-0.6-7.5c-0.2-2.7-0.4-5.4-0.6-8.2c-0.2-2-0.3-4-0.5-6c-0.2-2.7-0.4-5.4-0.6-8.2
		c-0.2-3.1-0.5-6.3-0.7-9.4c-0.3-3.3-0.5-6.5-0.8-9.8c-0.2-2.8-0.4-5.6-0.6-8.4c-0.1-1.4,0.8-2.3,2.4-2.3
		C31.1,17.2,40.5,17.2,49.8,17.2z M59.5,53.2c0,0.2,0,0.3,0,0.5c-0.2,2.8-0.4,5.6-0.6,8.5c0,0.4-0.2,0.5-0.5,0.6
		c-2.6,0.7-5.1,1.4-7.7,2.1c-0.4,0.1-0.9,0.1-1.3,0c-2.6-0.7-5.1-1.4-7.6-2c-0.5-0.1-0.6-0.3-0.6-0.8c0-1.6,0-3.1,0-4.7
		c0-0.6-0.2-0.7-0.7-0.7c-2.4,0-4.8,0-7.2,0c-0.8,0-0.8,0-0.7,0.8c0.3,3.7,0.6,7.3,0.8,11c0,0.4,0.1,0.5,0.5,0.6
		c5.2,1.6,10.4,3.3,15.6,4.9c0.2,0.1,0.5,0.1,0.8,0c5.1-1.6,10.2-3.2,15.4-4.8c0.5-0.2,0.7-0.4,0.7-0.9c0.1-2,0.3-4,0.5-6.1
		c0.2-2.6,0.4-5.3,0.6-7.9c0.2-2.6,0.4-5.3,0.6-7.9c0.1-0.8,0.1-0.8-0.7-0.8c-8.8,0-17.6,0-26.4,0c-0.8,0-0.8,0-0.8-0.8
		c-0.2-1.5-0.3-3-0.5-4.5c-0.1-0.9-0.2-1.8-0.3-2.8c0.3,0,0.6,0,0.8,0c8.1,0,16.1,0,24.2,0c1.3,0,2.5,0,3.8,0c0.4,0,0.6-0.1,0.6-0.6
		c0.1-2.1,0.3-4.2,0.5-6.4c0-0.5,0-0.7-0.6-0.7c-12.5,0-25.1,0-37.6,0c-0.6,0-0.7,0.2-0.6,0.7c0.2,2.1,0.3,4.2,0.5,6.2
		c0.2,2.6,0.4,5.2,0.6,7.8c0.2,2.6,0.4,5.2,0.6,7.8c0.1,0.8,0,0.8,0.9,0.8c8.6,0,17.1,0,25.7,0C58.9,53.2,59.1,53.2,59.5,53.2z"/>
	<path fill-rule="evenodd" clip-rule="evenodd" fill="#FFFFFF" d="M59.5,53.2c-0.3,0-0.6,0-0.9,0c-8.6,0-17.1,0-25.7,0
		c-0.8,0-0.8,0-0.9-0.8c-0.2-2.6-0.4-5.2-0.6-7.8c-0.2-2.6-0.4-5.2-0.6-7.8c-0.2-2.1-0.3-4.2-0.5-6.2c0-0.5,0.1-0.7,0.6-0.7
		c12.5,0,25.1,0,37.6,0c0.6,0,0.7,0.2,0.6,0.7c-0.2,2.1-0.3,4.2-0.5,6.4c0,0.4-0.2,0.6-0.6,0.6c-1.3,0-2.5,0-3.8,0
		c-8.1,0-16.1,0-24.2,0c-0.3,0-0.5,0-0.8,0c0.1,1,0.2,1.9,0.3,2.8c0.2,1.5,0.3,3,0.5,4.5c0.1,0.8,0.1,0.8,0.8,0.8
		c8.8,0,17.6,0,26.4,0c0.8,0,0.8,0,0.7,0.8c-0.2,2.6-0.4,5.3-0.6,7.9c-0.2,2.6-0.4,5.3-0.6,7.9c-0.2,2-0.3,4-0.5,6.1
		c0,0.5-0.2,0.8-0.7,0.9c-5.1,1.6-10.2,3.2-15.4,4.8c-0.2,0.1-0.5,0.1-0.8,0C44.2,72.3,39,70.7,33.8,69c-0.3-0.1-0.5-0.3-0.5-0.6
		c-0.3-3.7-0.6-7.3-0.8-11c-0.1-0.8-0.1-0.8,0.7-0.8c2.4,0,4.8,0,7.2,0c0.5,0,0.8,0.1,0.7,0.7c0,1.6,0,3.1,0,4.7
		c0,0.4,0.1,0.7,0.6,0.8c2.6,0.7,5.1,1.4,7.6,2c0.4,0.1,0.9,0.1,1.3,0c2.6-0.7,5.1-1.4,7.7-2.1c0.4-0.1,0.5-0.3,0.5-0.6
		c0.2-2.8,0.4-5.6,0.6-8.5C59.5,53.5,59.5,53.4,59.5,53.2z"/>
</g>
</svg>
