<?xml version="1.0" encoding="utf-8"?>
<!-- Generator: Adobe Illustrator 16.0.0, SVG Export Plug-In . SVG Version: 6.00 Build 0)  -->
<!DOCTYPE svg PUBLIC "-//W3C//DTD SVG 1.1//EN" "http://www.w3.org/Graphics/SVG/1.1/DTD/svg11.dtd">
<svg version="1.1" id="Layer_1" xmlns="http://www.w3.org/2000/svg" xmlns:xlink="http://www.w3.org/1999/xlink" x="0px" y="0px"
	 width="100px" height="100px" viewBox="0 0 100 100" enable-background="new 0 0 100 100" xml:space="preserve">
<path fill="#F7DF1E" d="M12.5,13.2c0,24.5,0,49.1,0,73.7c24.5,0,49.1,0,73.7,0c0-24.5,0-49.1,0-73.7C61.6,13.2,37,13.2,12.5,13.2z"
	/>
<path d="M56.2,73.8c1.9-1.1,3.8-2.2,5.7-3.2c0.5,0.6,0.9,1.1,1.3,1.6c2,2.4,4.5,2.9,7.4,2.4c1.3-0.3,2.4-1,2.7-2.5
	c0.3-1.6-0.4-2.8-1.8-3.5c-1.5-0.8-3.2-1.5-4.7-2.3c-1.5-0.7-2.9-1.4-4.3-2.4c-3.6-2.5-5-6.6-3.9-10.8c1-3.7,4.5-6.3,8.8-6.6
	c5.2-0.4,9,1.6,10.9,5.7c-1.7,1.1-3.4,2.2-5.2,3.4c-0.4-0.4-0.7-0.7-1-1.1c-1-1.3-2.4-1.8-4-1.7c-1.3,0.1-2.3,0.7-2.7,2
	c-0.4,1.3-0.1,2.4,1,3.2c1.1,0.7,2.4,1.3,3.5,1.9c1.9,1,3.8,1.8,5.7,2.9c4,2.4,5.4,6.1,4.6,10.6c-0.6,3.7-3.4,6.5-7.8,7.3
	c-5.7,1.1-11,0.1-14.9-4.6c-0.3-0.4-0.5-0.7-0.7-1.1C56.6,74.6,56.5,74.3,56.2,73.8z"/>
<path d="M31.8,74.5c1.9-1.2,3.8-2.3,5.7-3.5c0.4,0.6,0.7,1.1,1,1.5c1.3,1.8,3.1,2.5,5,1.8c1.8-0.7,2.1-2.2,2.1-3.9
	c0-7.3,0.1-14.6,0-21.9c0-1.5,0.3-2.1,1.9-1.9c1.3,0.1,2.7,0.1,4.1,0c0.8,0,1.3,0.2,1.3,1.1c-0.1,8.3,0,16.6-0.3,25
	c-0.1,4.4-3.5,7.4-7.9,8c-5.5,0.7-10-1.2-12.3-5.4C32.1,75.3,31.9,75,31.8,74.5z"/>
</svg>
