<?xml version="1.0" encoding="utf-8"?>
<!-- Generator: Adobe Illustrator 16.0.0, SVG Export Plug-In . SVG Version: 6.00 Build 0)  -->
<!DOCTYPE svg PUBLIC "-//W3C//DTD SVG 1.1//EN" "http://www.w3.org/Graphics/SVG/1.1/DTD/svg11.dtd">
<svg version="1.1" id="Layer_1" xmlns="http://www.w3.org/2000/svg" xmlns:xlink="http://www.w3.org/1999/xlink" x="0px" y="0px"
	 width="100px" height="100px" viewBox="0 0 100 100" enable-background="new 0 0 100 100" xml:space="preserve">
<path fill="#10A950" d="M51.1,82.1c-2.3-1.7-4.5-3.5-6.4-5.7c-5-5.7-8.7-12.1-10.4-19.6c-1-4.2-1-8.5-0.7-12.7
	c0.7-6,2-11.9,4.7-17.6c2.7-5.7,6.5-10.6,11.2-14.7c1.5-1.2,2.5-2.5,2.5-4.7c0.3,0.2,0.3,0.3,0.5,0.7c0,0.2,0,0.3,0,0.5
	c0.3,4.4,0.5,8.7,0.7,12.9c0.2,3.7,0,7.2,0.2,10.9c0.2,6.5,0,13.2,0.2,19.8c0.2,3.2,0,6.4-0.2,9.5c-0.2,3.3-0.3,6.5-0.5,9.9
	c0,0.3,0,0.8-0.2,1.2C52.5,75.8,52.1,79.1,51.1,82.1z"/>
<path fill="#12914F" d="M52.8,71.4c0.3-3.2,0.3-6.5,0.5-9.9c0.2-3.2,0.2-6.4,0.2-9.5c-0.2-6.5,0-13.2-0.2-19.8
	c-0.2-3.7,0-7.2-0.2-10.9C53,17,53,12.6,52.5,8.4c0-0.2,0-0.3,0-0.5c0.7,1.2,1.2,2.3,1.8,3.3c0.8,1.7,2.2,3,3.5,4.2
	c6.2,6.2,10,13.7,12.4,22.3c1.3,4.9,1.8,9.7,1.3,14.7c-1,10.6-5.2,19.4-13.1,26.8c-0.8,0.8-1.7,1.5-2.7,2.2c-1-0.7-1.5-1.7-2-2.7
	C53.1,76.4,53,73.9,52.8,71.4z"/>
<path fill="#B4C1BE" d="M52.8,71.4c0.2,2.5,0.3,4.9,1,7.2c0.3,1.2,0.8,2.2,2,2.7c-0.7,3.5-1.3,7-1.8,10.5c0,0.3-0.2,0.5-0.5,0.5
	h-0.2c-1.2,0-1.2,0-1.2-1.2c-0.3-3-0.7-6-1-9c1.2-3,1.3-6.4,1.7-9.5C52.8,72.2,52.8,71.7,52.8,71.4z"/>
</svg>
