<?xml version="1.0" encoding="utf-8"?>
<!-- Generator: Adobe Illustrator 16.0.0, SVG Export Plug-In . SVG Version: 6.00 Build 0)  -->
<!DOCTYPE svg PUBLIC "-//W3C//DTD SVG 1.1//EN" "http://www.w3.org/Graphics/SVG/1.1/DTD/svg11.dtd">
<svg version="1.1" id="Layer_1" xmlns="http://www.w3.org/2000/svg" xmlns:xlink="http://www.w3.org/1999/xlink" x="0px" y="0px"
	 width="100px" height="100px" viewBox="0 0 100 100" enable-background="new 0 0 100 100" xml:space="preserve">
<path fill="#8BC500" d="M89.6,50.4c0-6.8,0-13.8,0-20.6c0-1.8-0.8-3.3-2.3-4.1c-1.1-0.6-2.2-1.2-3.3-1.9
	C73.3,17.4,62.5,11.3,51.8,5.1c-1.7-0.9-3.5-1-5.2,0c-11.7,6.7-23.4,13.5-35.1,20.3c-1.9,1.1-2.9,2.6-2.8,4.9c0.1,7.6,0,15.1,0,22.7
	c0,6.1,0,12.1,0,18.2c0,1.8,0.8,3.1,2.3,4c0.4,0.2,0.8,0.5,1.2,0.8c11.4,6.7,22.9,13.2,34.3,19.9c1.7,0.9,3.5,0.9,5.2,0
	c7.1-4.1,14.3-8.3,21.4-12.4c4.6-2.6,9.1-5.3,13.7-7.9c1.8-1,2.7-2.5,2.7-4.7C89.6,63.9,89.6,57.1,89.6,50.4z"/>
<path fill="#FFFFFF" d="M61.2,45.6c0-0.5,0-0.8,0-1c0-2.9,0-5.8,0-8.6c0-0.9,0.2-1,1-0.6c1,0.6,2.1,1.1,3.1,1.7
	c0.5,0.3,0.8,0.6,0.8,1.2c0,6,0,11.9,0,17.9c0,0.6-0.2,0.9-0.8,1.2c-2,1.1-3.8,2.2-5.8,3.4c-0.6,0.3-1,0.3-1.5,0
	c-1.9-1.1-3.8-2.3-5.7-3.3c-0.5-0.6-0.8-0.9-0.7-1.5c0-2.3,0-4.4,0-6.7c0-0.6,0.2-0.9,0.8-1.2c1.9-1,3.8-2.2,5.6-3.3
	c0.6-0.4,1.1-0.4,1.7,0C60,45,60.5,45.3,61.2,45.6z M61.2,52.7c-0.1-0.5,0-1.1-0.3-1.4c-0.7-0.6-1.4-1.2-2.2-1.2s-1.5,0.7-2.2,1.2
	c-0.2,0.2-0.2,0.7-0.2,0.9c0,0.7-0.1,1.4,0.2,1.8c0.6,0.6,1.4,1.2,2.2,1.2s1.5-0.7,2.2-1.2C61.2,53.8,61.1,53.1,61.2,52.7z"/>
<path fill="#FFFFFF" d="M46.8,52.5c0,1.1,0,2.3,0,3.4c0,0.6-0.2,0.9-0.7,1.2c-2,1.1-3.9,2.3-5.9,3.4c-0.5,0.3-0.8,0.3-1.3,0
	C37,59.4,35,58.2,33,57c-0.5-0.3-0.7-0.6-0.7-1.1c0-2.3,0-4.6,0-6.8c0-0.5,0.2-0.8,0.7-1.1c2-1.1,3.9-2.3,6-3.4
	c0.3-0.2,0.9-0.2,1.2,0c2.1,1.1,4,2.3,6,3.5c0.3,0.2,0.6,0.7,0.6,1C46.8,50.2,46.8,51.3,46.8,52.5z M37.1,52.6
	c0.1,0.5,0,1.1,0.3,1.4c0.7,0.6,1.4,1.2,2.2,1.2c0.8,0,1.5-0.7,2.2-1.2c0.2-0.2,0.2-0.7,0.2-0.9c0-0.7,0.1-1.5-0.3-1.9
	C41,50.7,40.2,50,39.4,50s-1.5,0.7-2.2,1.2C37.1,51.5,37.2,52.2,37.1,52.6z"/>
<path fill="#FFFFFF" d="M27.5,53.7c0,1.6,0,3.1,0,4.7c0,0.8-0.3,0.8-0.8,0.5c-1.1-0.7-2.3-1.2-3.4-2c-0.3-0.2-0.6-0.8-0.6-1.1
	c-0.1-1.3-0.1-2.6,0-3.9c0-0.7-0.2-1-0.8-1.3c-1.8-1-2-1-3.6,0.3c-0.3,0.2-0.4,0.7-0.4,0.9c-0.1,1.3,0,2.6,0,3.9
	c0,0.7-0.2,1-0.8,1.3c-1,0.6-2.1,1.2-3.2,1.8C13.3,59.1,13,59,13,58.3c0-3.1,0-6.3,0-9.4c0-0.5,0.2-0.8,0.7-1.1c2.1-1.1,4-2.3,6-3.5
	c0.5-0.3,0.8-0.3,1.2,0c2,1.1,3.9,2.3,5.9,3.4c0.5,0.3,0.7,0.7,0.7,1.2C27.5,50.7,27.5,52.2,27.5,53.7z"/>
<path fill="#FFFFFF" d="M70.7,52.5c0-1.1,0-2.3,0-3.4c0-0.5,0.2-0.8,0.6-1.1c2-1.1,3.9-2.3,6-3.5c0.5-0.3,0.8-0.3,1.3,0
	c2,1.1,3.8,2.3,5.8,3.4c0.5,0.3,0.7,0.7,0.7,1.1c-0.1,2.3,0.3,1.7-1.6,2.9c-0.8,0.5-1.5,0.9-2.3,1.4c-0.6,0.4-0.9,0.2-0.8-0.5
	c0.3-1.5-0.5-2.2-1.7-2.7c-0.6-0.3-0.8-0.3-1.4,0c-1.4,0.6-1.9,1.5-1.7,3c0.1,0.6,0.2,0.9,0.7,1.2c1.9,1,3.8,2.2,5.6,3.2
	c0.8,0.5,0.8,0.7,0,1.1c-1.1,0.7-2.2,1.2-3.3,1.8c-0.5,0.3-0.9,0.3-1.4,0c-2-1.1-3.8-2.3-5.8-3.4c-0.5-0.3-0.7-0.6-0.6-1.1
	C70.8,54.9,70.7,53.7,70.7,52.5z"/>
<path fill="#FFFFFF" d="M79.4,52.5c0,0.7-0.8,1.5-1.4,1.5c-0.7,0-1.4-0.8-1.4-1.6c0-0.8,0.8-1.5,1.4-1.5
	C78.6,50.9,79.4,51.8,79.4,52.5z"/>
</svg>
