<?xml version="1.0" encoding="utf-8"?>
<!-- Generator: Adobe Illustrator 16.0.0, SVG Export Plug-In . SVG Version: 6.00 Build 0)  -->
<!DOCTYPE svg PUBLIC "-//W3C//DTD SVG 1.1//EN" "http://www.w3.org/Graphics/SVG/1.1/DTD/svg11.dtd">
<svg version="1.1" id="Layer_1" xmlns="http://www.w3.org/2000/svg" xmlns:xlink="http://www.w3.org/1999/xlink" x="0px" y="0px"
	 width="100px" height="100px" viewBox="0 0 100 100" enable-background="new 0 0 100 100" xml:space="preserve">
<path id="Path_81" fill="#061B34" d="M87.6,72.4c0,7.6-6.2,13.8-13.8,13.8c0,0,0,0,0,0H27.5c-7.6,0-13.8-6.2-13.8-13.8c0,0,0,0,0,0
	V26.2c0-7.6,6.2-13.8,13.8-13.8c0,0,0,0,0,0h46.2c7.6,0,13.8,6.2,13.8,13.8c0,0,0,0,0,0V72.4z"/>
<path id="Path_82" fill="#44A1D9" d="M55.6,59.7c2.8,1.2,5.5,2.2,8.4,2c1.1-0.1,2.4,0,2.6-1.5c0.2-1.2-0.9-1.4-1.8-1.9
	c-2.1-1.3-4.6-1.7-6.5-3.5c-2.2-2.1-3.3-4.6-2.2-7.6c1-3,3.4-4.6,6.4-5.2c2.4-0.4,4.8-0.4,7.1,0c2.1,0.3,3.2,1,3,3.4
	c-0.3,3.4-0.1,3.4-3.3,2.4c-2-0.5-4.1-0.6-6.1-0.1c-1.3,0.3-1.2,1.3-0.4,2.2c0.8,0.7,1.7,1.2,2.7,1.6c1.4,0.6,2.8,1.2,4.2,2
	c2.6,1.1,4.2,3.9,3.9,6.7c-0.1,2.9-1.9,5.4-4.6,6.4c-3.9,1.6-8.3,1.6-12.2,0c-0.8-0.2-1.3-1-1.2-1.9C55.7,63.1,55.6,61.6,55.6,59.7z
	"/>
<path id="Path_83" fill="#45A2DA" d="M52.5,44.8c-0.2-5.3-4.2-9.7-9.5-10.4c-4.6-0.5-9.3-0.5-13.9,0v33.3h6.5V56.5h5.4
	c1-0.1,2-0.3,3-0.5C49.1,54.8,52.7,50.1,52.5,44.8z M42.3,50c-1.8,0.5-3.7,0.7-5.5,0.5c-0.1,0-0.3,0-0.4-0.1h-0.9v-9.9h3.2
	c4.1-0.3,6.2,0.9,6.7,3.4C46.1,46.4,44.8,49.1,42.3,50L42.3,50z"/>
</svg>
