<?xml version="1.0" encoding="utf-8"?>
<!-- Generator: Adobe Illustrator 16.0.0, SVG Export Plug-In . SVG Version: 6.00 Build 0)  -->
<!DOCTYPE svg PUBLIC "-//W3C//DTD SVG 1.1//EN" "http://www.w3.org/Graphics/SVG/1.1/DTD/svg11.dtd">
<svg version="1.1" id="Layer_1" xmlns="http://www.w3.org/2000/svg" xmlns:xlink="http://www.w3.org/1999/xlink" x="0px" y="0px"
	 width="180px" height="44px" viewBox="0 0 180 44" enable-background="new 0 0 180 44" xml:space="preserve">
<rect y="0" fill="#FFFFFF" width="44" height="44"/>
<path d="M21.966,9.314c3.124,0,6.186,0.532,9.125,1.612c1.517,0.557,2.915,1.27,4.35,2.005c0.83,0.426-0.042,2.786-0.255,3.611
	c-1.945,7.546-6.486,14.009-13.144,18.134c-0.485,0.301-3.124-2.068-3.554-2.424c-1.465-1.213-2.814-2.572-4.004-4.057
	c-2.344-2.92-4.08-6.252-5.242-9.809c-0.466-1.425-0.746-2.883-0.989-4.358c-0.17-1.032,0.116-1.067,1.012-1.528
	c0.776-0.398,1.563-0.799,2.376-1.115c3.348-1.297,6.72-2.085,10.325-2.085C21.966,9.304,21.966,9.309,21.966,9.314
	C22.547,9.314,21.966,9.309,21.966,9.314z M21.955,16.78c0-0.003,0-0.006,0-0.009c-3.856,0-7.653,0.672-11.355,1.727
	c-0.11,0.031-0.139,0.107-0.096,0.209c2.358,5.561,6.232,9.588,11.401,12.619c0.421,0.248,2.677-1.539,3.076-1.822
	c1.229-0.871,2.369-1.867,3.413-2.951c1.925-1.998,3.47-4.303,4.63-6.818c0.506-1.096,0.925-2.26,1.225-3.428
	c0.16-0.627,0.313-1.263,0.426-1.9c0.14-0.778,0.125-0.836-0.575-1.178c-2.469-1.209-5.159-2.105-7.884-2.498
	c-6.015-0.864-11.452,0.266-16.925,2.779c-0.329,0.15,0.833,0.692,0.913,0.735c0.715,0.386,1.55,0.612,2.366,0.52
	c1.507-0.172,2.831-0.96,4.199-1.559c3.164-1.385,6.373-1.277,9.741-0.942c1.498,0.148,2.957,0.422,4.41,0.813
	c0.763,0.207,1.529,0.463,2.248,0.793c0.613,0.28,0.671,0.356,0.479,1.041c-0.984,3.508-2.843,6.238-5.636,8.582
	c-1.211,1.02-2.514,1.916-3.875,2.721c-0.64,0.379-1.378,0.969-2.083,1.195c-0.402,0.131-1.743-0.922-2.106-1.139
	c-1.57-0.945-7.997-4.934-5.224-7.281c1.08-0.912,2.918-1.125,4.27-1.234c1.681-0.137,3.459-0.027,5.112,0.301
	c1.575,0.311,2.857,1.594,4.459,1.805c0.797,0.105,1.486-0.037,2.155-0.482c0.128-0.086,1.456-1.047,1.089-1.148
	C28.576,17.344,25.311,16.78,21.955,16.78C21.955,16.777,22.426,16.78,21.955,16.78z"/>
<g>
	<path fill="#FFFFFF" d="M69.036,14.416c-0.586-0.364-1.242-0.512-1.909-0.517c-3.113-0.02-6.228-0.01-9.341-0.005
		c-0.091,0-0.242,0.053-0.265,0.115c-0.183,0.506-0.34,1.02-0.523,1.586c3.1,0,6.13,0,9.182,0c-0.06,0.204-0.106,0.366-0.167,0.577
		c-0.142,0-0.274,0-0.406,0c-1.461,0-2.92,0-4.379,0c-1.362,0-2.725,0-4.086,0c-0.168,0-0.328-0.029-0.396,0.209
		c-0.197,0.688-0.428,1.364-0.627,2.051c-0.174,0.601-0.056,0.884,0.467,1.229c0.601,0.396,1.281,0.495,1.979,0.497
		c3.065,0.004,6.13,0.001,9.195,0c0.105,0,0.212-0.01,0.348-0.017c0.48-1.548,0.971-3.081,1.43-4.624
		C69.679,15.041,69.48,14.694,69.036,14.416z M65.313,18.333c-0.027,0.063-0.143,0.126-0.219,0.126
		c-1.884,0.006-3.769,0.005-5.715,0.005c0.073-0.249,0.117-0.448,0.195-0.635c0.026-0.065,0.137-0.136,0.209-0.136
		c1.896-0.008,3.791-0.006,5.738-0.006C65.447,17.929,65.397,18.139,65.313,18.333z"/>
	<path fill="#FFFFFF" d="M142.358,19.831c0.439-1.397,0.889-2.792,1.325-4.192c0.173-0.555,0.013-0.916-0.489-1.222
		c-0.703-0.429-1.486-0.493-2.277-0.497c-1.932-0.008-3.865-0.002-5.798-0.002c-1.069,0-2.14-0.005-3.209,0.006
		c-0.126,0.002-0.333,0.055-0.363,0.135c-0.187,0.506-0.333,1.025-0.505,1.581c3.135,0,6.207,0,9.299,0
		c-0.004,0.433-0.184,0.545-0.568,0.542c-2.844-0.018-5.688-0.003-8.533-0.018c-0.302-0.001-0.428,0.104-0.508,0.375
		c-0.187,0.627-0.39,1.249-0.598,1.869c-0.153,0.455-0.067,0.8,0.314,1.096c0.57,0.443,1.246,0.615,1.941,0.619
		c3.185,0.018,6.369,0.004,9.555,0.014C142.186,20.137,142.292,20.042,142.358,19.831z M138.745,18.465c-1.626,0-3.252,0-4.878,0
		c-0.125,0-0.249,0-0.394,0c0.289-0.846,0.289-0.846,1.123-0.846c1.564,0,3.13,0,4.695,0c0.131,0,0.264,0,0.387,0
		c0.016,0.049,0.033,0.072,0.028,0.092C139.528,18.465,139.528,18.465,138.745,18.465z"/>
	<path fill="#FFFFFF" d="M128.458,14.431c-0.602-0.386-1.289-0.505-1.982-0.507c-4.898-0.012-9.799-0.004-14.698-0.012
		c-0.251,0-0.364,0.077-0.438,0.316c-0.387,1.262-0.791,2.518-1.188,3.775c-0.219,0.689-0.435,1.379-0.664,2.107
		c0.172,0.008,0.289,0.018,0.406,0.018c0.815,0.002,1.631-0.025,2.443,0.013c0.418,0.019,0.555-0.144,0.665-0.518
		c0.394-1.331,0.83-2.65,1.248-3.967c1.327,0,2.636,0,3.977,0c-0.471,1.487-0.934,2.949-1.4,4.423
		c0.087,0.023,0.132,0.046,0.179,0.046c0.984,0.003,1.969,0.011,2.953-0.007c0.097-0.002,0.244-0.141,0.279-0.246
		c0.367-1.117,0.714-2.239,1.07-3.359c0.279-0.875,0.282-0.875,1.211-0.875c1.02,0,2.039,0,3.104,0
		c-0.477,1.502-0.94,2.963-1.425,4.489c1.088,0,2.107,0.006,3.125-0.011c0.086-0.002,0.213-0.14,0.246-0.239
		c0.455-1.394,0.864-2.804,1.356-4.185C129.133,15.115,128.88,14.699,128.458,14.431z"/>
	<path fill="#FFFFFF" d="M169.397,13.974c-1.021-0.004-2.043-0.013-3.064,0.005c-0.092,0-0.229,0.152-0.265,0.26
		c-0.429,1.287-0.857,2.574-1.249,3.872c-0.092,0.302-0.221,0.361-0.504,0.36c-1.738-0.012-3.478-0.006-5.216-0.008
		c-0.116,0-0.234-0.011-0.392-0.02c0.483-1.501,0.955-2.967,1.436-4.461c-1.135,0-2.213,0-3.312,0
		c-0.472,1.449-0.927,2.893-1.409,4.327c-0.218,0.646-0.098,1.071,0.609,1.383c0.572,0.251,1.23,0.403,1.855,0.42
		c1.932,0.052,3.865,0.019,5.799,0.019c0.141,0,0.281,0,0.441,0c-0.002,0.349-0.1,0.498-0.445,0.496
		c-2.236-0.013-4.474-0.009-6.711,0c-0.133,0.001-0.351,0.064-0.386,0.154c-0.187,0.48-0.329,0.98-0.5,1.518
		c0.173,0,0.303,0,0.434,0c2.468,0,4.936-0.01,7.404,0.006c0.73,0.004,1.427-0.127,2.095-0.398c0.682-0.277,1.244-0.674,1.473-1.445
		c0.391-1.311,0.82-2.61,1.232-3.915c0.267-0.84,0.533-1.681,0.801-2.524C169.462,13.996,169.43,13.974,169.397,13.974z"/>
	<path fill="#FFFFFF" d="M65.676,29.236c-0.388-0.617-1.022-0.775-1.72-0.773c-1.91,0.008-3.817-0.002-5.728,0.008
		c-0.295,0.002-0.401-0.113-0.397-0.395c0.007-0.564,0.002-1.131,0.002-1.695c0.001-0.498,0.053-0.553,0.547-0.553
		c1.781,0,3.562-0.004,5.343,0.002c0.627,0.004,0.84-0.16,0.835,0.771c-0.001,0.018,0.02,0.035,0.035,0.063c0.457,0,0.92,0,1.415,0
		c0-0.158,0-0.295,0-0.432c0-1.137-0.74-1.873-1.883-1.873c-1.993,0-3.988,0-5.981,0c-1.004,0.002-1.804,0.793-1.813,1.803
		c-0.007,0.672-0.009,1.344,0,2.016c0.012,0.996,0.804,1.775,1.795,1.775c1.973,0,3.947,0.004,5.92-0.004
		c0.292-0.002,0.49,0.08,0.497,0.393c0.011,0.619,0.013,1.238-0.001,1.855c-0.006,0.197-0.07,0.369-0.34,0.369
		c-2.016-0.006-4.033-0.006-6.048-0.002c-0.219,0.002-0.312-0.105-0.318-0.307c-0.006-0.178-0.001-0.354-0.001-0.543
		c-0.514,0-0.979,0-1.506,0c0,0.215-0.005,0.404,0.001,0.594c0.031,0.975,0.828,1.748,1.799,1.748c2.047,0,4.096,0.002,6.143,0
		c0.945,0,1.728-0.781,1.735-1.729c0.005-0.705,0.033-1.41-0.013-2.111C65.971,29.883,65.855,29.52,65.676,29.236z"/>
	<path fill="#FFFFFF" d="M96.587,24.361c-2.516-0.002-5.032-0.002-7.548-0.002c-0.113,0-0.228,0-0.351,0c0,3.25,0,6.455,0,9.697
		c0.154,0,0.271,0,0.387,0c2.495,0,4.99,0,7.484,0c1.007,0,1.795-0.754,1.8-1.762c0.011-2.068,0.011-4.137-0.001-6.205
		C98.354,25.127,97.551,24.361,96.587,24.361z M96.88,29.199c0,0.98,0,1.961-0.002,2.939c0,0.377-0.046,0.424-0.423,0.424
		c-1.972,0.002-3.942-0.004-5.912,0.006c-0.298,0.002-0.399-0.121-0.399-0.395c0.002-1.971,0.002-3.943-0.001-5.914
		c0-0.291,0.12-0.432,0.416-0.432c1.971,0.002,3.941,0,5.912,0c0.286,0,0.417,0.125,0.413,0.432
		C96.87,27.238,96.88,28.219,96.88,29.199z"/>
	<path fill="#FFFFFF" d="M110.749,24.363c-2.12-0.01-4.241-0.01-6.362,0c-0.813,0.004-1.561,0.713-1.629,1.52
		c-0.031,0.338-0.048,0.678-0.047,1.018c0.011,1.873,0.007,3.748,0.052,5.621c0.02,0.828,0.815,1.531,1.641,1.533
		c2.11,0.006,4.22,0.006,6.33,0.002c0.868-0.004,1.674-0.824,1.675-1.691c0.002-1.045,0-2.088,0-3.133c0-1.055,0.002-2.109,0-3.164
		C112.407,25.189,111.62,24.367,110.749,24.363z M110.947,32.156c0.002,0.301-0.124,0.414-0.424,0.412
		c-0.991-0.012-1.983-0.004-2.976-0.004c-0.979,0-1.961-0.01-2.942,0.004c-0.295,0.004-0.402-0.111-0.401-0.395
		c0.004-1.971,0.006-3.945-0.001-5.916c0-0.295,0.115-0.432,0.414-0.43c1.974,0.002,3.946,0,5.919,0.002
		c0.29,0,0.414,0.145,0.413,0.439C110.942,28.232,110.943,30.193,110.947,32.156z"/>
	<path fill="#FFFFFF" d="M107.663,20.119c0.082-0.002,0.2-0.125,0.238-0.218c0.098-0.246,0.16-0.507,0.238-0.761
		c0.377-1.215,0.75-2.432,1.129-3.646c0.103-0.326,0.009-0.58-0.229-0.818c-0.607-0.606-1.389-0.727-2.178-0.748
		c-1.434-0.041-2.867-0.029-4.301-0.037c-0.667-0.003-1.334,0-2.042,0c0.204-0.654,0.397-1.275,0.608-1.953
		c-1.043,0-2.027,0.01-3.01-0.008c-0.281-0.004-0.386,0.084-0.47,0.355c-0.638,2.069-1.3,4.131-1.95,6.197
		c-0.17,0.539-0.326,1.084-0.502,1.676c1.101,0,2.144,0.007,3.185-0.011c0.085-0.002,0.212-0.151,0.245-0.255
		c0.415-1.303,0.822-2.609,1.217-3.919c0.074-0.245,0.18-0.343,0.454-0.341c1.749,0.014,3.5,0.008,5.25,0.008
		c0.104,0,0.209,0.012,0.343,0.02c-0.471,1.49-0.934,2.953-1.413,4.469C105.579,20.129,106.62,20.133,107.663,20.119z"/>
	<path fill="#FFFFFF" d="M81.771,19.471c0.512,0.463,1.158,0.643,1.813,0.648c3.233,0.034,6.467,0.033,9.701,0.033
		c0.1,0,0.258-0.097,0.289-0.184c0.172-0.477,0.314-0.965,0.482-1.503c-3.08,0-6.123,0-9.211,0c0.29-0.944,0.559-1.833,0.846-2.717
		c0.023-0.078,0.174-0.165,0.264-0.164c1.273,0.009,2.548,0.044,3.821,0.052c1.642,0.012,3.282,0.006,4.925-0.004
		c0.09,0,0.234-0.088,0.264-0.168c0.178-0.498,0.33-1.006,0.503-1.548c-0.146-0.011-0.25-0.025-0.354-0.025
		c-3.027-0.001-6.055-0.017-9.082,0.008c-1.039,0.009-2.05,0.22-2.941,0.808c-0.342,0.227-0.594,0.512-0.713,0.927
		c-0.271,0.942-0.545,1.887-0.88,2.808C81.331,18.893,81.464,19.193,81.771,19.471z"/>
	<path fill="#FFFFFF" d="M87.195,24.381c-0.494,0-0.958,0-1.453,0c0,0.146,0,0.271,0,0.398c0,2.441,0,4.883-0.001,7.326
		c0,0.416-0.043,0.459-0.458,0.459c-1.92,0-3.84,0-5.759,0c-0.478,0-0.514-0.035-0.514-0.506c0-2.432,0-4.863,0-7.295
		c0-0.123,0-0.246,0-0.383c-0.515,0-0.988,0-1.472,0c-0.011,0.059-0.024,0.098-0.024,0.139c-0.001,2.549-0.016,5.098,0.005,7.646
		c0.009,1.266,0.938,1.93,2.006,1.904c1.951-0.045,3.903-0.014,5.854-0.014c1.08,0,1.835-0.746,1.835-1.818
		c0.001-2.516,0.001-5.033,0-7.551C87.214,24.586,87.202,24.486,87.195,24.381z"/>
	<path fill="#FFFFFF" d="M66.946,25.83c1.362,0,2.709,0,4.092,0c0,2.762,0,5.484,0,8.209c0.5,0,0.964,0,1.47,0
		c0-2.74,0-5.461,0-8.217c1.379,0,2.718,0,4.073,0c0-0.498,0-0.961,0-1.443c-3.22,0-6.423,0-9.635,0
		C66.946,24.863,66.946,25.326,66.946,25.83z"/>
	<path fill="#FFFFFF" d="M155.845,13.951c-0.105-0.014-0.185-0.032-0.265-0.032c-2.225-0.002-4.448-0.018-6.673,0.007
		c-0.838,0.01-1.662,0.163-2.433,0.531c-0.589,0.281-1.053,0.66-1.248,1.327c-0.27,0.918-0.581,1.823-0.874,2.733
		c-0.166,0.521-0.328,1.045-0.506,1.611c1.09,0,2.121,0.006,3.152-0.012c0.082-0.001,0.203-0.147,0.236-0.25
		c0.43-1.286,0.855-2.574,1.258-3.869c0.088-0.283,0.209-0.367,0.505-0.365c1.98,0.015,3.962,0.012,5.943,0
		c0.138-0.002,0.358-0.082,0.397-0.184C155.531,14.97,155.675,14.471,155.845,13.951z"/>
	<path fill="#FFFFFF" d="M81.191,15.468c0.183-0.495,0.329-1.005,0.502-1.553c-0.144-0.013-0.216-0.024-0.286-0.024
		c-2.25-0.001-4.498-0.014-6.746,0.006c-0.806,0.008-1.59,0.188-2.326,0.527c-0.622,0.285-1.082,0.705-1.272,1.402
		c-0.231,0.853-0.515,1.691-0.775,2.536c-0.181,0.585-0.36,1.169-0.549,1.784c1.13,0,2.198,0,3.28,0
		c0.06-0.161,0.124-0.316,0.174-0.477c0.393-1.249,0.79-2.496,1.162-3.75c0.082-0.271,0.197-0.353,0.479-0.352
		c2.005,0.014,4.01,0.01,6.016,0.003C80.968,15.571,81.166,15.537,81.191,15.468z"/>
	<path fill="#FFFFFF" d="M99.843,34.033c0.49,0,0.962,0,1.436,0c0-3.229,0-6.434,0-9.656c-0.481,0-0.946,0-1.436,0
		C99.843,27.615,99.843,30.82,99.843,34.033z"/>
</g>
</svg>
